<svg width="24" height="24" viewBox="0 0 24 24" fill="none" xmlns="http://www.w3.org/2000/svg">
<path d="M5.63687 18.364C4.85582 17.5829 4.85582 16.3166 5.63687 15.5355L15.5364 5.63603C16.3174 4.85498 17.5837 4.85498 18.3648 5.63603C19.1458 6.41708 19.1458 7.68341 18.3648 8.46446L8.4653 18.364C7.68425 19.145 6.41792 19.145 5.63687 18.364Z" fill="black"/>
<path d="M5.63657 5.63605C6.41762 4.855 7.68395 4.855 8.46499 5.63605L18.3645 15.5355C19.1455 16.3166 19.1455 17.5829 18.3645 18.364C17.5834 19.145 16.3171 19.145 15.5361 18.364L5.63657 8.46447C4.85552 7.68342 4.85552 6.41709 5.63657 5.63605Z" fill="black"/>
</svg>
